<svg xmlns="http://www.w3.org/2000/svg" xmlns:xlink="http://www.w3.org/1999/xlink" width="72" zoomAndPan="magnify" viewBox="0 0 54 54" height="72" preserveAspectRatio="xMidYMid meet" version="1.0"><defs><clipPath id="2b2af5ae28"><path d="M 0.492188 0 L 53.507812 0 L 53.507812 53.019531 L 0.492188 53.019531 Z M 0.492188 0 " clip-rule="nonzero"/></clipPath><clipPath id="13aa5ad97b"><path d="M 27 0 C 12.359375 0 0.492188 11.867188 0.492188 26.507812 C 0.492188 41.148438 12.359375 53.019531 27 53.019531 C 41.640625 53.019531 53.507812 41.148438 53.507812 26.507812 C 53.507812 11.867188 41.640625 0 27 0 Z M 27 0 " clip-rule="nonzero"/></clipPath><clipPath id="39d0cb39b8"><path d="M 22 33 L 32 33 L 32 37 L 22 37 Z M 22 33 " clip-rule="nonzero"/></clipPath><clipPath id="f244bfeb71"><path d="M 16.394531 16.382812 L 37.75 16.382812 L 37.75 33 L 16.394531 33 Z M 16.394531 16.382812 " clip-rule="nonzero"/></clipPath></defs><g clip-path="url(#2b2af5ae28)"><g clip-path="url(#13aa5ad97b)"><path fill="#5ce1e6" d="M 0.492188 0 L 53.507812 0 L 53.507812 53.019531 L 0.492188 53.019531 Z M 0.492188 0 " fill-opacity="1" fill-rule="nonzero"/></g></g><g clip-path="url(#39d0cb39b8)"><path fill="#000000" d="M 31.433594 37.003906 L 22.714844 37.003906 C 22.636719 37.003906 22.574219 36.976562 22.523438 36.921875 C 22.46875 36.867188 22.441406 36.804688 22.441406 36.726562 L 22.441406 36 C 22.441406 35.734375 22.492188 35.476562 22.59375 35.230469 C 22.695312 34.984375 22.839844 34.765625 23.027344 34.578125 C 23.214844 34.386719 23.429688 34.242188 23.671875 34.140625 C 23.917969 34.035156 24.171875 33.984375 24.4375 33.984375 L 29.710938 33.984375 C 29.976562 33.984375 30.230469 34.035156 30.472656 34.140625 C 30.71875 34.242188 30.933594 34.386719 31.121094 34.578125 C 31.308594 34.765625 31.453125 34.984375 31.550781 35.230469 C 31.652344 35.476562 31.703125 35.734375 31.707031 36 L 31.707031 36.726562 C 31.707031 36.804688 31.679688 36.867188 31.625 36.921875 C 31.574219 36.976562 31.507812 37.003906 31.433594 37.003906 Z M 22.984375 36.453125 L 31.164062 36.453125 L 31.164062 36 C 31.160156 35.804688 31.125 35.621094 31.050781 35.441406 C 30.976562 35.261719 30.871094 35.101562 30.738281 34.964844 C 30.601562 34.828125 30.445312 34.722656 30.265625 34.644531 C 30.089844 34.570312 29.902344 34.535156 29.710938 34.535156 L 24.4375 34.535156 C 24.242188 34.535156 24.058594 34.570312 23.882812 34.644531 C 23.703125 34.722656 23.546875 34.828125 23.410156 34.964844 C 23.273438 35.101562 23.167969 35.261719 23.097656 35.441406 C 23.023438 35.621094 22.984375 35.804688 22.984375 36 Z M 22.984375 36.453125 " fill-opacity="1" fill-rule="nonzero"/></g><g clip-path="url(#f244bfeb71)"><path fill="#000000" d="M 37.480469 32.214844 L 16.667969 32.214844 C 16.59375 32.214844 16.527344 32.1875 16.476562 32.136719 C 16.421875 32.082031 16.394531 32.015625 16.394531 31.941406 L 16.394531 16.660156 C 16.394531 16.585938 16.421875 16.519531 16.476562 16.464844 C 16.527344 16.414062 16.59375 16.386719 16.667969 16.386719 L 37.480469 16.386719 C 37.554688 16.386719 37.617188 16.414062 37.671875 16.464844 C 37.722656 16.519531 37.75 16.585938 37.75 16.660156 L 37.75 31.941406 C 37.75 32.015625 37.722656 32.082031 37.671875 32.136719 C 37.617188 32.1875 37.554688 32.214844 37.480469 32.214844 Z M 16.9375 31.667969 L 37.207031 31.667969 L 37.207031 16.933594 L 16.9375 16.933594 Z M 16.9375 31.667969 " fill-opacity="1" fill-rule="nonzero"/></g><path fill="#000000" d="M 28.382812 34.535156 L 25.765625 34.535156 C 25.691406 34.535156 25.625 34.507812 25.574219 34.453125 C 25.519531 34.398438 25.496094 34.335938 25.496094 34.261719 L 25.496094 31.941406 C 25.496094 31.867188 25.519531 31.800781 25.574219 31.746094 C 25.625 31.695312 25.691406 31.667969 25.765625 31.667969 L 28.382812 31.667969 C 28.457031 31.667969 28.519531 31.695312 28.574219 31.746094 C 28.625 31.800781 28.652344 31.867188 28.652344 31.941406 L 28.652344 34.261719 C 28.652344 34.335938 28.625 34.398438 28.574219 34.453125 C 28.519531 34.507812 28.457031 34.535156 28.382812 34.535156 Z M 26.039062 33.984375 L 28.109375 33.984375 L 28.109375 32.214844 L 26.039062 32.214844 Z M 26.039062 33.984375 " fill-opacity="1" fill-rule="nonzero"/><path fill="#000000" d="M 35.894531 30.617188 L 18.25 30.617188 C 18.175781 30.617188 18.113281 30.589844 18.058594 30.535156 C 18.007812 30.480469 17.980469 30.417969 17.980469 30.339844 L 17.980469 18.257812 C 17.980469 18.183594 18.007812 18.117188 18.058594 18.066406 C 18.113281 18.011719 18.175781 17.984375 18.25 17.984375 L 35.894531 17.984375 C 35.972656 17.984375 36.035156 18.011719 36.089844 18.066406 C 36.140625 18.117188 36.167969 18.183594 36.167969 18.257812 L 36.167969 30.339844 C 36.167969 30.417969 36.140625 30.480469 36.089844 30.535156 C 36.035156 30.589844 35.972656 30.617188 35.894531 30.617188 Z M 18.523438 30.066406 L 35.625 30.066406 L 35.625 18.535156 L 18.523438 18.535156 Z M 18.523438 30.066406 " fill-opacity="1" fill-rule="nonzero"/><path fill="#000000" d="M 23.3125 26.808594 L 22.566406 26.808594 C 22.464844 26.808594 22.367188 26.785156 22.277344 26.738281 C 22.1875 26.691406 22.113281 26.625 22.054688 26.542969 C 21.996094 26.457031 21.960938 26.367188 21.945312 26.265625 C 21.929688 26.164062 21.941406 26.0625 21.972656 25.964844 C 21.988281 25.917969 21.972656 25.886719 21.925781 25.871094 C 21.863281 25.847656 21.800781 25.820312 21.738281 25.792969 C 21.695312 25.769531 21.660156 25.78125 21.636719 25.828125 C 21.59375 25.917969 21.53125 25.996094 21.449219 26.054688 C 21.367188 26.117188 21.277344 26.15625 21.179688 26.171875 C 21.078125 26.191406 20.980469 26.183594 20.882812 26.152344 C 20.785156 26.121094 20.703125 26.070312 20.632812 25.996094 L 20.105469 25.464844 C 20.03125 25.390625 19.980469 25.304688 19.949219 25.207031 C 19.917969 25.109375 19.910156 25.011719 19.929688 24.910156 C 19.945312 24.808594 19.984375 24.71875 20.042969 24.636719 C 20.105469 24.554688 20.179688 24.488281 20.273438 24.445312 C 20.316406 24.421875 20.328125 24.386719 20.304688 24.34375 C 20.277344 24.28125 20.25 24.214844 20.226562 24.152344 C 20.210938 24.105469 20.179688 24.089844 20.132812 24.105469 C 20.039062 24.140625 19.9375 24.148438 19.839844 24.136719 C 19.738281 24.121094 19.644531 24.082031 19.5625 24.023438 C 19.480469 23.964844 19.417969 23.886719 19.371094 23.796875 C 19.324219 23.707031 19.300781 23.609375 19.300781 23.503906 L 19.300781 22.75 C 19.300781 22.648438 19.324219 22.550781 19.371094 22.460938 C 19.417969 22.371094 19.480469 22.292969 19.5625 22.234375 C 19.644531 22.175781 19.738281 22.136719 19.839844 22.125 C 19.9375 22.109375 20.035156 22.117188 20.132812 22.152344 C 20.179688 22.167969 20.210938 22.152344 20.226562 22.105469 C 20.25 22.042969 20.277344 21.976562 20.304688 21.914062 C 20.328125 21.871094 20.316406 21.835938 20.269531 21.8125 C 20.179688 21.769531 20.101562 21.707031 20.042969 21.625 C 19.980469 21.539062 19.941406 21.449219 19.925781 21.347656 C 19.910156 21.246094 19.917969 21.148438 19.949219 21.046875 C 19.980469 20.949219 20.03125 20.867188 20.101562 20.792969 L 20.628906 20.261719 C 20.703125 20.1875 20.785156 20.136719 20.882812 20.105469 C 20.980469 20.074219 21.078125 20.066406 21.175781 20.082031 C 21.277344 20.097656 21.367188 20.136719 21.449219 20.199219 C 21.53125 20.261719 21.59375 20.339844 21.636719 20.429688 C 21.660156 20.476562 21.695312 20.484375 21.738281 20.464844 C 21.800781 20.4375 21.863281 20.410156 21.925781 20.386719 C 21.972656 20.367188 21.988281 20.335938 21.972656 20.289062 C 21.9375 20.191406 21.929688 20.09375 21.945312 19.992188 C 21.957031 19.890625 21.996094 19.796875 22.054688 19.714844 C 22.113281 19.632812 22.1875 19.566406 22.277344 19.519531 C 22.367188 19.472656 22.464844 19.449219 22.566406 19.449219 L 23.3125 19.449219 C 23.414062 19.449219 23.507812 19.472656 23.597656 19.519531 C 23.6875 19.566406 23.765625 19.628906 23.824219 19.714844 C 23.882812 19.796875 23.917969 19.890625 23.933594 19.992188 C 23.949219 20.09375 23.941406 20.191406 23.90625 20.289062 C 23.890625 20.335938 23.90625 20.367188 23.953125 20.386719 C 24.015625 20.410156 24.078125 20.4375 24.140625 20.464844 C 24.183594 20.484375 24.21875 20.476562 24.242188 20.429688 C 24.285156 20.339844 24.347656 20.261719 24.429688 20.199219 C 24.511719 20.136719 24.601562 20.097656 24.699219 20.082031 C 24.800781 20.066406 24.898438 20.074219 24.996094 20.105469 C 25.09375 20.136719 25.175781 20.1875 25.25 20.261719 L 25.773438 20.792969 C 25.847656 20.867188 25.898438 20.949219 25.929688 21.046875 C 25.960938 21.144531 25.96875 21.246094 25.949219 21.347656 C 25.933594 21.449219 25.894531 21.539062 25.835938 21.621094 C 25.773438 21.703125 25.699219 21.765625 25.605469 21.8125 C 25.5625 21.835938 25.550781 21.867188 25.574219 21.914062 C 25.601562 21.976562 25.625 22.039062 25.652344 22.105469 C 25.667969 22.148438 25.699219 22.164062 25.746094 22.148438 C 25.839844 22.117188 25.941406 22.105469 26.039062 22.121094 C 26.140625 22.136719 26.230469 22.175781 26.3125 22.234375 C 26.398438 22.292969 26.460938 22.371094 26.507812 22.460938 C 26.554688 22.550781 26.578125 22.648438 26.574219 22.75 L 26.574219 23.503906 C 26.574219 23.609375 26.554688 23.707031 26.507812 23.796875 C 26.460938 23.886719 26.394531 23.960938 26.3125 24.023438 C 26.230469 24.082031 26.140625 24.117188 26.039062 24.132812 C 25.9375 24.148438 25.839844 24.140625 25.746094 24.105469 C 25.699219 24.089844 25.667969 24.105469 25.648438 24.152344 C 25.625 24.214844 25.601562 24.28125 25.570312 24.339844 C 25.550781 24.386719 25.5625 24.421875 25.605469 24.445312 C 25.695312 24.488281 25.773438 24.550781 25.832031 24.632812 C 25.894531 24.714844 25.933594 24.808594 25.949219 24.910156 C 25.964844 25.011719 25.957031 25.109375 25.929688 25.207031 C 25.898438 25.304688 25.84375 25.390625 25.773438 25.460938 L 25.246094 25.996094 C 25.175781 26.066406 25.089844 26.121094 24.996094 26.152344 C 24.898438 26.183594 24.800781 26.1875 24.699219 26.171875 C 24.601562 26.15625 24.507812 26.117188 24.429688 26.054688 C 24.347656 25.992188 24.285156 25.917969 24.238281 25.824219 C 24.21875 25.78125 24.183594 25.769531 24.140625 25.789062 C 24.078125 25.820312 24.015625 25.84375 23.953125 25.871094 C 23.90625 25.886719 23.890625 25.917969 23.90625 25.964844 C 23.9375 26.0625 23.949219 26.160156 23.933594 26.261719 C 23.917969 26.363281 23.882812 26.457031 23.824219 26.539062 C 23.765625 26.625 23.691406 26.6875 23.601562 26.734375 C 23.511719 26.78125 23.414062 26.804688 23.3125 26.804688 Z M 21.703125 25.234375 C 21.792969 25.234375 21.882812 25.253906 21.964844 25.292969 C 22.015625 25.316406 22.066406 25.339844 22.117188 25.355469 C 22.273438 25.414062 22.390625 25.519531 22.460938 25.675781 C 22.53125 25.828125 22.542969 25.984375 22.484375 26.144531 C 22.476562 26.171875 22.480469 26.199219 22.496094 26.222656 C 22.515625 26.246094 22.535156 26.257812 22.566406 26.257812 L 23.3125 26.257812 C 23.339844 26.257812 23.363281 26.246094 23.378906 26.222656 C 23.398438 26.199219 23.402344 26.171875 23.390625 26.144531 C 23.335938 25.984375 23.34375 25.828125 23.417969 25.675781 C 23.488281 25.519531 23.605469 25.414062 23.761719 25.355469 C 23.8125 25.335938 23.863281 25.316406 23.914062 25.292969 C 24.066406 25.222656 24.222656 25.214844 24.378906 25.269531 C 24.539062 25.328125 24.65625 25.433594 24.726562 25.585938 C 24.761719 25.65625 24.808594 25.664062 24.863281 25.609375 L 25.390625 25.074219 C 25.445312 25.019531 25.4375 24.972656 25.367188 24.9375 C 25.21875 24.863281 25.113281 24.746094 25.058594 24.585938 C 25 24.425781 25.007812 24.269531 25.078125 24.113281 C 25.101562 24.0625 25.125 24.011719 25.140625 23.960938 C 25.199219 23.800781 25.304688 23.683594 25.457031 23.613281 C 25.609375 23.539062 25.761719 23.53125 25.921875 23.585938 C 25.949219 23.597656 25.976562 23.59375 26 23.574219 C 26.023438 23.558594 26.035156 23.535156 26.035156 23.503906 L 26.035156 22.75 C 26.035156 22.722656 26.023438 22.699219 26 22.683594 C 25.976562 22.664062 25.949219 22.660156 25.921875 22.671875 C 25.761719 22.726562 25.609375 22.71875 25.457031 22.644531 C 25.304688 22.574219 25.199219 22.457031 25.140625 22.296875 C 25.121094 22.246094 25.101562 22.195312 25.078125 22.144531 C 25.007812 21.988281 25 21.832031 25.058594 21.671875 C 25.113281 21.511719 25.21875 21.394531 25.367188 21.320312 C 25.4375 21.285156 25.445312 21.238281 25.390625 21.183594 L 24.863281 20.648438 C 24.808594 20.59375 24.761719 20.601562 24.726562 20.671875 C 24.65625 20.824219 24.539062 20.929688 24.378906 20.988281 C 24.222656 21.042969 24.066406 21.035156 23.914062 20.964844 C 23.863281 20.941406 23.8125 20.917969 23.761719 20.902344 C 23.601562 20.84375 23.488281 20.738281 23.417969 20.582031 C 23.34375 20.429688 23.335938 20.273438 23.390625 20.113281 C 23.402344 20.085938 23.398438 20.058594 23.378906 20.035156 C 23.363281 20.011719 23.339844 20 23.3125 20 L 22.566406 20 C 22.535156 20 22.515625 20.011719 22.496094 20.035156 C 22.480469 20.058594 22.476562 20.085938 22.484375 20.113281 C 22.542969 20.273438 22.53125 20.429688 22.460938 20.582031 C 22.390625 20.738281 22.273438 20.84375 22.117188 20.902344 C 22.066406 20.921875 22.015625 20.941406 21.964844 20.964844 C 21.8125 21.035156 21.65625 21.042969 21.496094 20.988281 C 21.339844 20.929688 21.222656 20.824219 21.148438 20.671875 C 21.113281 20.601562 21.070312 20.59375 21.015625 20.648438 L 20.488281 21.183594 C 20.433594 21.238281 20.441406 21.285156 20.507812 21.320312 C 20.660156 21.394531 20.765625 21.511719 20.820312 21.671875 C 20.878906 21.832031 20.871094 21.988281 20.800781 22.144531 C 20.777344 22.195312 20.753906 22.246094 20.734375 22.296875 C 20.679688 22.457031 20.574219 22.574219 20.421875 22.644531 C 20.269531 22.71875 20.113281 22.726562 19.957031 22.671875 C 19.929688 22.660156 19.902344 22.664062 19.878906 22.683594 C 19.855469 22.699219 19.84375 22.722656 19.84375 22.75 L 19.84375 23.503906 C 19.84375 23.585938 19.882812 23.613281 19.957031 23.585938 C 20.113281 23.53125 20.269531 23.539062 20.421875 23.613281 C 20.574219 23.683594 20.679688 23.800781 20.734375 23.960938 C 20.753906 24.011719 20.777344 24.0625 20.800781 24.113281 C 20.871094 24.269531 20.878906 24.425781 20.820312 24.585938 C 20.765625 24.746094 20.660156 24.863281 20.507812 24.9375 C 20.4375 24.972656 20.429688 25.019531 20.488281 25.074219 L 21.015625 25.609375 C 21.070312 25.664062 21.113281 25.65625 21.148438 25.585938 C 21.261719 25.351562 21.445312 25.234375 21.703125 25.234375 Z M 25.832031 22.410156 Z M 25.832031 22.410156 " fill-opacity="1" fill-rule="nonzero"/><path fill="#000000" d="M 22.9375 25.039062 C 22.6875 25.039062 22.445312 24.992188 22.214844 24.894531 C 21.984375 24.796875 21.78125 24.660156 21.601562 24.480469 C 21.425781 24.300781 21.289062 24.09375 21.191406 23.859375 C 21.097656 23.625 21.046875 23.382812 21.046875 23.128906 C 21.046875 22.875 21.097656 22.632812 21.191406 22.398438 C 21.289062 22.164062 21.425781 21.957031 21.601562 21.777344 C 21.78125 21.597656 21.984375 21.460938 22.214844 21.363281 C 22.445312 21.265625 22.6875 21.21875 22.9375 21.21875 C 23.191406 21.21875 23.429688 21.265625 23.664062 21.363281 C 23.894531 21.460938 24.097656 21.597656 24.277344 21.777344 C 24.453125 21.957031 24.589844 22.164062 24.683594 22.398438 C 24.78125 22.632812 24.828125 22.875 24.828125 23.128906 C 24.828125 23.382812 24.78125 23.625 24.683594 23.859375 C 24.589844 24.09375 24.453125 24.300781 24.273438 24.480469 C 24.097656 24.660156 23.894531 24.796875 23.660156 24.894531 C 23.429688 24.992188 23.191406 25.039062 22.9375 25.039062 Z M 22.9375 21.765625 C 22.761719 21.765625 22.589844 21.800781 22.421875 21.871094 C 22.257812 21.9375 22.113281 22.039062 21.984375 22.164062 C 21.859375 22.292969 21.761719 22.441406 21.695312 22.609375 C 21.625 22.773438 21.589844 22.949219 21.589844 23.128906 C 21.589844 23.308594 21.625 23.484375 21.695312 23.648438 C 21.761719 23.816406 21.859375 23.964844 21.984375 24.09375 C 22.113281 24.21875 22.257812 24.316406 22.421875 24.386719 C 22.589844 24.457031 22.761719 24.492188 22.9375 24.492188 C 23.117188 24.492188 23.289062 24.457031 23.453125 24.386719 C 23.621094 24.316406 23.765625 24.21875 23.890625 24.09375 C 24.019531 23.964844 24.117188 23.816406 24.183594 23.648438 C 24.253906 23.484375 24.285156 23.308594 24.285156 23.128906 C 24.285156 22.949219 24.25 22.773438 24.183594 22.609375 C 24.113281 22.441406 24.015625 22.292969 23.890625 22.164062 C 23.765625 22.039062 23.621094 21.941406 23.453125 21.871094 C 23.289062 21.800781 23.117188 21.765625 22.9375 21.765625 Z M 22.9375 21.765625 " fill-opacity="1" fill-rule="nonzero"/><path fill="#000000" d="M 29.191406 23.03125 C 29.121094 23.03125 29.0625 23.007812 29.007812 22.964844 L 27.582031 21.699219 C 27.519531 21.644531 27.488281 21.574219 27.488281 21.492188 C 27.488281 21.410156 27.519531 21.339844 27.582031 21.285156 L 29.007812 20.023438 C 29.066406 19.964844 29.132812 19.941406 29.210938 19.941406 C 29.289062 19.945312 29.351562 19.976562 29.402344 20.035156 C 29.453125 20.09375 29.476562 20.164062 29.46875 20.242188 C 29.460938 20.320312 29.429688 20.382812 29.367188 20.433594 L 28.171875 21.492188 L 29.367188 22.550781 C 29.460938 22.632812 29.488281 22.734375 29.441406 22.855469 C 29.398438 22.972656 29.3125 23.03125 29.1875 23.03125 Z M 29.191406 23.03125 " fill-opacity="1" fill-rule="nonzero"/><path fill="#000000" d="M 32.949219 23.03125 C 32.824219 23.03125 32.738281 22.972656 32.695312 22.855469 C 32.652344 22.734375 32.675781 22.632812 32.769531 22.550781 L 33.964844 21.492188 L 32.769531 20.433594 C 32.710938 20.382812 32.675781 20.320312 32.667969 20.242188 C 32.660156 20.164062 32.683594 20.09375 32.734375 20.035156 C 32.785156 19.976562 32.851562 19.945312 32.929688 19.941406 C 33.007812 19.941406 33.074219 19.964844 33.128906 20.023438 L 34.558594 21.285156 C 34.617188 21.339844 34.648438 21.410156 34.648438 21.492188 C 34.648438 21.574219 34.617188 21.644531 34.558594 21.699219 L 33.128906 22.964844 C 33.078125 23.007812 33.015625 23.03125 32.949219 23.03125 Z M 32.949219 23.03125 " fill-opacity="1" fill-rule="nonzero"/><path fill="#000000" d="M 30.570312 23.234375 C 30.539062 23.234375 30.507812 23.226562 30.480469 23.21875 C 30.410156 23.191406 30.355469 23.148438 30.324219 23.078125 C 30.292969 23.011719 30.285156 22.941406 30.3125 22.867188 L 31.3125 19.9375 C 31.335938 19.867188 31.382812 19.8125 31.449219 19.78125 C 31.515625 19.75 31.585938 19.746094 31.65625 19.769531 C 31.726562 19.796875 31.777344 19.839844 31.808594 19.90625 C 31.84375 19.976562 31.847656 20.042969 31.824219 20.117188 L 30.828125 23.046875 C 30.785156 23.171875 30.699219 23.234375 30.570312 23.234375 Z M 30.570312 23.234375 " fill-opacity="1" fill-rule="nonzero"/><path fill="#000000" d="M 34.574219 24.464844 L 27.566406 24.464844 C 27.488281 24.464844 27.425781 24.4375 27.371094 24.382812 C 27.320312 24.328125 27.292969 24.265625 27.292969 24.1875 C 27.292969 24.113281 27.320312 24.046875 27.371094 23.996094 C 27.425781 23.941406 27.488281 23.914062 27.566406 23.914062 L 34.574219 23.914062 C 34.648438 23.914062 34.714844 23.941406 34.765625 23.996094 C 34.820312 24.046875 34.847656 24.113281 34.847656 24.1875 C 34.847656 24.265625 34.820312 24.328125 34.765625 24.382812 C 34.714844 24.4375 34.648438 24.464844 34.574219 24.464844 Z M 34.574219 24.464844 " fill-opacity="1" fill-rule="nonzero"/><path fill="#000000" d="M 34.574219 26.808594 L 27.566406 26.808594 C 27.488281 26.808594 27.425781 26.78125 27.371094 26.726562 C 27.320312 26.671875 27.292969 26.609375 27.292969 26.53125 C 27.292969 26.457031 27.320312 26.390625 27.371094 26.339844 C 27.425781 26.285156 27.488281 26.257812 27.566406 26.257812 L 34.574219 26.257812 C 34.648438 26.257812 34.714844 26.285156 34.765625 26.339844 C 34.820312 26.390625 34.847656 26.457031 34.847656 26.53125 C 34.847656 26.609375 34.820312 26.671875 34.765625 26.726562 C 34.714844 26.78125 34.648438 26.808594 34.574219 26.808594 Z M 34.574219 26.808594 " fill-opacity="1" fill-rule="nonzero"/><path fill="#000000" d="M 34.574219 29.148438 L 27.566406 29.148438 C 27.488281 29.148438 27.425781 29.125 27.371094 29.070312 C 27.320312 29.015625 27.292969 28.953125 27.292969 28.875 C 27.292969 28.800781 27.320312 28.734375 27.371094 28.683594 C 27.425781 28.628906 27.488281 28.601562 27.566406 28.601562 L 34.574219 28.601562 C 34.648438 28.601562 34.714844 28.628906 34.765625 28.683594 C 34.820312 28.734375 34.847656 28.800781 34.847656 28.875 C 34.847656 28.953125 34.820312 29.015625 34.765625 29.070312 C 34.714844 29.125 34.648438 29.148438 34.574219 29.148438 Z M 34.574219 29.148438 " fill-opacity="1" fill-rule="nonzero"/></svg>