<svg xmlns="http://www.w3.org/2000/svg" xmlns:xlink="http://www.w3.org/1999/xlink" width="72" zoomAndPan="magnify" viewBox="0 0 54 54" height="72" preserveAspectRatio="xMidYMid meet" version="1.0"><defs><clipPath id="9b35adfdab"><path d="M 0.492188 0 L 53.507812 0 L 53.507812 53.019531 L 0.492188 53.019531 Z M 0.492188 0 " clip-rule="nonzero"/></clipPath><clipPath id="a35e6f17d9"><path d="M 27 0 C 12.359375 0 0.492188 11.867188 0.492188 26.507812 C 0.492188 41.148438 12.359375 53.019531 27 53.019531 C 41.640625 53.019531 53.507812 41.148438 53.507812 26.507812 C 53.507812 11.867188 41.640625 0 27 0 Z M 27 0 " clip-rule="nonzero"/></clipPath><clipPath id="b7969cafc4"><path d="M 16.507812 19 L 37.863281 19 L 37.863281 33 L 16.507812 33 Z M 16.507812 19 " clip-rule="nonzero"/></clipPath><clipPath id="f7c8e45e55"><path d="M 16.507812 29 L 37.863281 29 L 37.863281 31 L 16.507812 31 Z M 16.507812 29 " clip-rule="nonzero"/></clipPath><clipPath id="0868309fee"><path d="M 21 35 L 33 35 L 33 37.371094 L 21 37.371094 Z M 21 35 " clip-rule="nonzero"/></clipPath><clipPath id="61ed73764c"><path d="M 19 16.015625 L 36 16.015625 L 36 29 L 19 29 Z M 19 16.015625 " clip-rule="nonzero"/></clipPath></defs><g clip-path="url(#9b35adfdab)"><g clip-path="url(#a35e6f17d9)"><path fill="#5ce1e6" d="M 0.492188 0 L 53.507812 0 L 53.507812 53.019531 L 0.492188 53.019531 Z M 0.492188 0 " fill-opacity="1" fill-rule="nonzero"/></g></g><g clip-path="url(#b7969cafc4)"><path fill="#000000" d="M 36.261719 32.90625 L 18.09375 32.90625 C 17.445312 32.90625 16.917969 32.378906 16.917969 31.726562 L 16.917969 20.292969 C 16.917969 19.644531 17.445312 19.105469 18.09375 19.105469 L 19.535156 19.105469 C 19.671875 19.105469 19.785156 19.21875 19.785156 19.355469 C 19.785156 19.492188 19.671875 19.605469 19.535156 19.605469 L 18.09375 19.605469 C 17.71875 19.605469 17.421875 19.917969 17.421875 20.292969 L 17.421875 31.726562 C 17.421875 32.105469 17.71875 32.402344 18.09375 32.402344 L 36.261719 32.402344 C 36.636719 32.402344 36.949219 32.105469 36.949219 31.726562 L 36.949219 20.292969 C 36.949219 19.917969 36.636719 19.605469 36.261719 19.605469 L 34.820312 19.605469 C 34.683594 19.605469 34.570312 19.492188 34.570312 19.355469 C 34.570312 19.21875 34.683594 19.105469 34.820312 19.105469 L 36.261719 19.105469 C 36.910156 19.105469 37.449219 19.644531 37.449219 20.292969 L 37.449219 31.726562 C 37.449219 32.378906 36.910156 32.90625 36.261719 32.90625 Z M 36.261719 32.90625 " fill-opacity="1" fill-rule="evenodd"/></g><g clip-path="url(#f7c8e45e55)"><path fill="#000000" d="M 37.199219 30.203125 L 17.167969 30.203125 C 17.03125 30.203125 16.917969 30.089844 16.917969 29.953125 C 16.917969 29.8125 17.03125 29.703125 17.167969 29.703125 L 37.199219 29.703125 C 37.335938 29.703125 37.449219 29.8125 37.449219 29.953125 C 37.449219 30.089844 37.335938 30.203125 37.199219 30.203125 Z M 37.199219 30.203125 " fill-opacity="1" fill-rule="evenodd"/></g><path fill="#000000" d="M 35.023438 33.867188 L 19.347656 33.867188 C 19.207031 33.867188 19.097656 33.753906 19.097656 33.617188 L 19.097656 32.652344 C 19.097656 32.515625 19.207031 32.402344 19.347656 32.402344 L 35.023438 32.402344 C 35.160156 32.402344 35.273438 32.515625 35.273438 32.652344 L 35.273438 33.617188 C 35.273438 33.753906 35.160156 33.867188 35.023438 33.867188 Z M 19.597656 33.367188 L 34.769531 33.367188 L 34.769531 32.90625 L 19.597656 32.90625 Z M 19.597656 33.367188 " fill-opacity="1" fill-rule="evenodd"/><path fill="#000000" d="M 30.59375 36.355469 L 23.773438 36.355469 C 23.636719 36.355469 23.523438 36.246094 23.523438 36.105469 L 23.523438 33.617188 C 23.523438 33.480469 23.636719 33.367188 23.773438 33.367188 L 30.59375 33.367188 C 30.730469 33.367188 30.84375 33.480469 30.84375 33.617188 L 30.84375 36.105469 C 30.84375 36.246094 30.730469 36.355469 30.59375 36.355469 Z M 24.023438 35.855469 L 30.34375 35.855469 L 30.34375 33.867188 L 24.023438 33.867188 Z M 24.023438 35.855469 " fill-opacity="1" fill-rule="evenodd"/><g clip-path="url(#0868309fee)"><path fill="#000000" d="M 32.308594 37.371094 L 22.0625 37.371094 C 21.921875 37.371094 21.8125 37.257812 21.8125 37.121094 L 21.8125 36.605469 C 21.8125 36.195312 22.148438 35.855469 22.5625 35.855469 L 31.804688 35.855469 C 32.21875 35.855469 32.558594 36.195312 32.558594 36.605469 L 32.558594 37.121094 C 32.558594 37.257812 32.445312 37.371094 32.308594 37.371094 Z M 22.3125 36.871094 L 32.058594 36.871094 L 32.058594 36.605469 C 32.058594 36.46875 31.945312 36.355469 31.804688 36.355469 L 22.5625 36.355469 C 22.425781 36.355469 22.3125 36.46875 22.3125 36.605469 Z M 22.3125 36.871094 " fill-opacity="1" fill-rule="evenodd"/></g><path fill="#000000" d="M 28.890625 35.03125 L 25.476562 35.03125 C 25.339844 35.03125 25.226562 34.917969 25.226562 34.78125 L 25.226562 33.617188 C 25.226562 33.480469 25.339844 33.367188 25.476562 33.367188 L 28.890625 33.367188 C 29.03125 33.367188 29.140625 33.480469 29.140625 33.617188 L 29.140625 34.78125 C 29.140625 34.917969 29.03125 35.03125 28.890625 35.03125 Z M 25.726562 34.53125 L 28.640625 34.53125 L 28.640625 33.867188 L 25.726562 33.867188 Z M 25.726562 34.53125 " fill-opacity="1" fill-rule="evenodd"/><path fill="#000000" d="M 31.554688 31.367188 L 22.8125 31.367188 C 22.675781 31.367188 22.5625 31.253906 22.5625 31.117188 L 22.5625 29.953125 C 22.5625 29.8125 22.675781 29.703125 22.8125 29.703125 L 31.554688 29.703125 C 31.695312 29.703125 31.804688 29.8125 31.804688 29.953125 L 31.804688 31.117188 C 31.804688 31.253906 31.695312 31.367188 31.554688 31.367188 Z M 23.0625 30.867188 L 31.304688 30.867188 L 31.304688 30.203125 L 23.0625 30.203125 Z M 23.0625 30.867188 " fill-opacity="1" fill-rule="evenodd"/><path fill="#000000" d="M 33.78125 31.566406 L 33.09375 31.566406 C 32.957031 31.566406 32.84375 31.453125 32.84375 31.316406 C 32.84375 31.179688 32.957031 31.066406 33.09375 31.066406 L 33.78125 31.066406 C 33.921875 31.066406 34.035156 31.179688 34.035156 31.316406 C 34.035156 31.453125 33.921875 31.566406 33.78125 31.566406 Z M 33.78125 31.566406 " fill-opacity="1" fill-rule="evenodd"/><path fill="#000000" d="M 35.996094 31.554688 L 35.308594 31.554688 C 35.171875 31.554688 35.058594 31.441406 35.058594 31.304688 C 35.058594 31.164062 35.171875 31.054688 35.308594 31.054688 L 35.996094 31.054688 C 36.136719 31.054688 36.246094 31.164062 36.246094 31.304688 C 36.246094 31.441406 36.136719 31.554688 35.996094 31.554688 Z M 35.996094 31.554688 " fill-opacity="1" fill-rule="evenodd"/><g clip-path="url(#61ed73764c)"><path fill="#000000" d="M 34.820312 28.902344 L 19.535156 28.902344 C 19.398438 28.902344 19.285156 28.789062 19.285156 28.652344 L 19.285156 16.265625 C 19.285156 16.128906 19.398438 16.015625 19.535156 16.015625 L 34.820312 16.015625 C 34.960938 16.015625 35.070312 16.128906 35.070312 16.265625 L 35.070312 28.652344 C 35.070312 28.789062 34.960938 28.902344 34.820312 28.902344 Z M 19.785156 28.402344 L 34.570312 28.402344 L 34.570312 16.515625 L 19.785156 16.515625 Z M 19.785156 28.402344 " fill-opacity="1" fill-rule="evenodd"/></g><path fill="#000000" d="M 26.652344 19.894531 L 19.535156 19.894531 C 19.398438 19.894531 19.285156 19.78125 19.285156 19.644531 C 19.285156 19.507812 19.398438 19.394531 19.535156 19.394531 L 26.578125 19.394531 L 28.179688 18.34375 C 28.214844 18.316406 28.265625 18.292969 28.316406 18.292969 L 34.820312 18.292969 C 34.960938 18.292969 35.070312 18.40625 35.070312 18.542969 C 35.070312 18.679688 34.960938 18.792969 34.820312 18.792969 L 28.390625 18.792969 L 26.789062 19.855469 C 26.753906 19.882812 26.703125 19.894531 26.652344 19.894531 Z M 26.652344 19.894531 " fill-opacity="1" fill-rule="evenodd"/><path fill="#000000" d="M 26.203125 18.769531 L 20.648438 18.769531 C 20.511719 18.769531 20.398438 18.65625 20.398438 18.519531 L 20.398438 17.390625 C 20.398438 17.253906 20.511719 17.140625 20.648438 17.140625 L 26.203125 17.140625 C 26.339844 17.140625 26.453125 17.253906 26.453125 17.390625 L 26.453125 18.519531 C 26.453125 18.65625 26.339844 18.769531 26.203125 18.769531 Z M 20.898438 18.269531 L 25.953125 18.269531 L 25.953125 17.640625 L 20.898438 17.640625 Z M 20.898438 18.269531 " fill-opacity="1" fill-rule="evenodd"/><path fill="#000000" d="M 33.796875 17.65625 L 32.984375 17.65625 C 32.84375 17.65625 32.730469 17.542969 32.730469 17.40625 C 32.730469 17.265625 32.84375 17.15625 32.984375 17.15625 L 33.796875 17.15625 C 33.933594 17.15625 34.046875 17.265625 34.046875 17.40625 C 34.046875 17.542969 33.933594 17.65625 33.796875 17.65625 Z M 33.796875 17.65625 " fill-opacity="1" fill-rule="evenodd"/><path fill="#000000" d="M 31.65625 17.65625 L 30.855469 17.65625 C 30.71875 17.65625 30.605469 17.542969 30.605469 17.40625 C 30.605469 17.265625 30.71875 17.15625 30.855469 17.15625 L 31.65625 17.15625 C 31.792969 17.15625 31.90625 17.265625 31.90625 17.40625 C 31.90625 17.542969 31.792969 17.65625 31.65625 17.65625 Z M 31.65625 17.65625 " fill-opacity="1" fill-rule="evenodd"/><path fill="#000000" d="M 29.53125 17.65625 L 28.714844 17.65625 C 28.578125 17.65625 28.464844 17.542969 28.464844 17.40625 C 28.464844 17.265625 28.578125 17.15625 28.714844 17.15625 L 29.53125 17.15625 C 29.667969 17.15625 29.78125 17.265625 29.78125 17.40625 C 29.78125 17.542969 29.667969 17.65625 29.53125 17.65625 Z M 29.53125 17.65625 " fill-opacity="1" fill-rule="evenodd"/><path fill="#000000" d="M 23.035156 28.902344 C 22.898438 28.902344 22.785156 28.789062 22.785156 28.652344 L 22.785156 19.644531 C 22.785156 19.507812 22.898438 19.394531 23.035156 19.394531 C 23.175781 19.394531 23.289062 19.507812 23.289062 19.644531 L 23.289062 28.652344 C 23.289062 28.789062 23.175781 28.902344 23.035156 28.902344 Z M 23.035156 28.902344 " fill-opacity="1" fill-rule="evenodd"/><path fill="#000000" d="M 22.160156 21.984375 L 20.421875 21.984375 C 20.285156 21.984375 20.171875 21.871094 20.171875 21.734375 L 20.171875 20.667969 C 20.171875 20.53125 20.285156 20.417969 20.421875 20.417969 L 22.160156 20.417969 C 22.300781 20.417969 22.410156 20.53125 22.410156 20.667969 L 22.410156 21.734375 C 22.410156 21.871094 22.300781 21.984375 22.160156 21.984375 Z M 20.671875 21.484375 L 21.910156 21.484375 L 21.910156 20.917969 L 20.671875 20.917969 Z M 20.671875 21.484375 " fill-opacity="1" fill-rule="evenodd"/><path fill="#000000" d="M 22.160156 23.921875 L 20.421875 23.921875 C 20.285156 23.921875 20.171875 23.808594 20.171875 23.671875 L 20.171875 22.609375 C 20.171875 22.472656 20.285156 22.359375 20.421875 22.359375 L 22.160156 22.359375 C 22.300781 22.359375 22.410156 22.472656 22.410156 22.609375 L 22.410156 23.671875 C 22.410156 23.808594 22.300781 23.921875 22.160156 23.921875 Z M 20.671875 23.421875 L 21.910156 23.421875 L 21.910156 22.859375 L 20.671875 22.859375 Z M 20.671875 23.421875 " fill-opacity="1" fill-rule="evenodd"/><path fill="#000000" d="M 22.160156 27.875 L 20.421875 27.875 C 20.285156 27.875 20.171875 27.761719 20.171875 27.625 L 20.171875 24.546875 C 20.171875 24.398438 20.285156 24.296875 20.421875 24.296875 L 22.160156 24.296875 C 22.300781 24.296875 22.410156 24.398438 22.410156 24.546875 L 22.410156 27.625 C 22.410156 27.761719 22.300781 27.875 22.160156 27.875 Z M 20.671875 27.375 L 21.910156 27.375 L 21.910156 24.796875 L 20.671875 24.796875 Z M 20.671875 27.375 " fill-opacity="1" fill-rule="evenodd"/><path fill="#000000" d="M 28.566406 27.800781 L 24.589844 27.800781 C 24.277344 27.800781 24.023438 27.550781 24.023438 27.238281 L 24.023438 24.535156 C 24.023438 24.222656 24.277344 23.972656 24.589844 23.972656 L 28.566406 23.972656 C 28.878906 23.972656 29.128906 24.222656 29.128906 24.535156 L 29.128906 27.238281 C 29.128906 27.550781 28.878906 27.800781 28.566406 27.800781 Z M 24.589844 24.472656 C 24.550781 24.472656 24.527344 24.496094 24.527344 24.535156 L 24.527344 27.238281 C 24.527344 27.273438 24.550781 27.300781 24.589844 27.300781 L 28.566406 27.300781 C 28.605469 27.300781 28.628906 27.273438 28.628906 27.238281 L 28.628906 24.535156 C 28.628906 24.496094 28.605469 24.472656 28.566406 24.472656 Z M 24.589844 24.472656 " fill-opacity="1" fill-rule="evenodd"/><path fill="#000000" d="M 33.046875 22.070312 L 25.140625 22.070312 C 24.699219 22.070312 24.351562 21.71875 24.351562 21.28125 C 24.351562 20.84375 24.699219 20.496094 25.140625 20.496094 L 33.046875 20.496094 C 33.484375 20.496094 33.832031 20.84375 33.832031 21.28125 C 33.832031 21.71875 33.484375 22.070312 33.046875 22.070312 Z M 25.125 20.996094 C 24.976562 20.996094 24.851562 21.121094 24.851562 21.28125 C 24.851562 21.445312 24.976562 21.570312 25.125 21.570312 L 33.046875 21.570312 C 33.207031 21.570312 33.332031 21.445312 33.332031 21.28125 C 33.332031 21.121094 33.207031 20.996094 33.046875 20.996094 Z M 25.125 20.996094 " fill-opacity="1" fill-rule="evenodd"/><path fill="#000000" d="M 33.46875 23.273438 L 24.714844 23.273438 C 24.574219 23.273438 24.464844 23.160156 24.464844 23.023438 C 24.464844 22.882812 24.574219 22.769531 24.714844 22.769531 L 33.46875 22.769531 C 33.609375 22.769531 33.71875 22.882812 33.71875 23.023438 C 33.71875 23.160156 33.609375 23.273438 33.46875 23.273438 Z M 33.46875 23.273438 " fill-opacity="1" fill-rule="evenodd"/><path fill="#000000" d="M 32.832031 25.5625 L 31.082031 25.5625 C 30.644531 25.5625 30.292969 25.210938 30.292969 24.773438 C 30.292969 24.347656 30.644531 23.984375 31.082031 23.984375 L 32.832031 23.984375 C 33.269531 23.984375 33.621094 24.347656 33.621094 24.773438 C 33.621094 25.210938 33.269531 25.5625 32.832031 25.5625 Z M 31.082031 24.484375 C 30.917969 24.484375 30.792969 24.621094 30.792969 24.773438 C 30.792969 24.933594 30.917969 25.0625 31.082031 25.0625 L 32.832031 25.0625 C 32.996094 25.0625 33.121094 24.933594 33.121094 24.773438 C 33.121094 24.621094 32.996094 24.484375 32.832031 24.484375 Z M 31.082031 24.484375 " fill-opacity="1" fill-rule="evenodd"/><path fill="#000000" d="M 33.46875 26.75 L 30.457031 26.75 C 30.316406 26.75 30.207031 26.636719 30.207031 26.5 C 30.207031 26.363281 30.316406 26.25 30.457031 26.25 L 33.46875 26.25 C 33.609375 26.25 33.71875 26.363281 33.71875 26.5 C 33.71875 26.636719 33.609375 26.75 33.46875 26.75 Z M 33.46875 26.75 " fill-opacity="1" fill-rule="evenodd"/><path fill="#000000" d="M 33.46875 27.789062 L 30.457031 27.789062 C 30.316406 27.789062 30.207031 27.675781 30.207031 27.539062 C 30.207031 27.398438 30.316406 27.289062 30.457031 27.289062 L 33.46875 27.289062 C 33.609375 27.289062 33.71875 27.398438 33.71875 27.539062 C 33.71875 27.675781 33.609375 27.789062 33.46875 27.789062 Z M 33.46875 27.789062 " fill-opacity="1" fill-rule="evenodd"/><path fill="#000000" d="M 33.46875 19.894531 L 28.691406 19.894531 C 28.554688 19.894531 28.441406 19.78125 28.441406 19.644531 C 28.441406 19.507812 28.554688 19.394531 28.691406 19.394531 L 33.46875 19.394531 C 33.609375 19.394531 33.71875 19.507812 33.71875 19.644531 C 33.71875 19.78125 33.609375 19.894531 33.46875 19.894531 Z M 33.46875 19.894531 " fill-opacity="1" fill-rule="evenodd"/></svg>