<svg xmlns="http://www.w3.org/2000/svg" xmlns:xlink="http://www.w3.org/1999/xlink" width="72" zoomAndPan="magnify" viewBox="0 0 54 54" height="72" preserveAspectRatio="xMidYMid meet" version="1.0"><defs><clipPath id="e948bf2a1f"><path d="M 0.492188 0 L 53.507812 0 L 53.507812 53.019531 L 0.492188 53.019531 Z M 0.492188 0 " clip-rule="nonzero"/></clipPath><clipPath id="63f6a32442"><path d="M 27 0 C 12.359375 0 0.492188 11.867188 0.492188 26.507812 C 0.492188 41.148438 12.359375 53.019531 27 53.019531 C 41.640625 53.019531 53.507812 41.148438 53.507812 26.507812 C 53.507812 11.867188 41.640625 0 27 0 Z M 27 0 " clip-rule="nonzero"/></clipPath><clipPath id="d4399be1b4"><path d="M 16.394531 17.113281 L 37.75 17.113281 L 37.75 36.257812 L 16.394531 36.257812 Z M 16.394531 17.113281 " clip-rule="nonzero"/></clipPath></defs><g clip-path="url(#e948bf2a1f)"><g clip-path="url(#63f6a32442)"><path fill="#5ce1e6" d="M 0.492188 0 L 53.507812 0 L 53.507812 53.019531 L 0.492188 53.019531 Z M 0.492188 0 " fill-opacity="1" fill-rule="nonzero"/></g></g><g clip-path="url(#d4399be1b4)"><path fill="#000000" d="M 20.230469 18.628906 C 20.230469 18.792969 20.097656 18.925781 19.9375 18.925781 L 19.925781 18.925781 C 19.761719 18.925781 19.632812 18.792969 19.632812 18.628906 C 19.632812 18.46875 19.761719 18.335938 19.925781 18.335938 L 19.9375 18.335938 C 20.097656 18.335938 20.230469 18.46875 20.230469 18.628906 Z M 32.292969 18.335938 L 24.296875 18.335938 C 24.136719 18.335938 24.007812 18.46875 24.007812 18.628906 C 24.007812 18.792969 24.136719 18.925781 24.296875 18.925781 L 32.292969 18.925781 C 32.453125 18.925781 32.585938 18.792969 32.585938 18.628906 C 32.585938 18.46875 32.453125 18.335938 32.292969 18.335938 Z M 20.847656 18.335938 L 20.835938 18.335938 C 20.671875 18.335938 20.542969 18.46875 20.542969 18.628906 C 20.542969 18.792969 20.671875 18.925781 20.835938 18.925781 L 20.847656 18.925781 C 21.007812 18.925781 21.140625 18.792969 21.140625 18.628906 C 21.140625 18.46875 21.007812 18.335938 20.847656 18.335938 Z M 21.757812 18.335938 L 21.746094 18.335938 C 21.582031 18.335938 21.453125 18.46875 21.453125 18.628906 C 21.453125 18.792969 21.582031 18.925781 21.746094 18.925781 L 21.757812 18.925781 C 21.917969 18.925781 22.050781 18.792969 22.050781 18.628906 C 22.050781 18.46875 21.917969 18.335938 21.757812 18.335938 Z M 37.75 30.289062 C 37.75 32.8125 35.722656 34.867188 33.226562 34.867188 C 31.980469 34.867188 30.851562 34.355469 30.035156 33.527344 L 28.710938 33.527344 L 28.710938 35.664062 L 30.285156 35.664062 C 30.445312 35.664062 30.578125 35.792969 30.578125 35.957031 C 30.578125 36.121094 30.445312 36.253906 30.285156 36.253906 L 21.933594 36.253906 C 21.773438 36.253906 21.640625 36.121094 21.640625 35.957031 C 21.640625 35.792969 21.773438 35.664062 21.933594 35.664062 L 23.503906 35.664062 L 23.503906 33.527344 L 16.6875 33.527344 C 16.527344 33.527344 16.394531 33.394531 16.394531 33.230469 L 16.394531 20.808594 C 16.394531 20.648438 16.527344 20.515625 16.6875 20.515625 L 17.933594 20.515625 L 17.933594 17.40625 C 17.933594 17.242188 18.066406 17.109375 18.226562 17.109375 L 33.992188 17.109375 C 34.152344 17.109375 34.285156 17.242188 34.285156 17.40625 L 34.285156 20.515625 L 35.53125 20.515625 C 35.691406 20.515625 35.824219 20.648438 35.824219 20.808594 L 35.824219 26.542969 C 36.988281 27.371094 37.75 28.742188 37.75 30.289062 Z M 34.285156 21.105469 L 34.285156 25.839844 C 34.617188 25.921875 34.9375 26.039062 35.238281 26.191406 L 35.238281 21.105469 Z M 33.226562 25.710938 C 33.386719 25.710938 33.542969 25.722656 33.699219 25.738281 L 33.699219 20.148438 L 18.519531 20.148438 L 18.519531 29.585938 L 28.757812 29.585938 C 29.09375 27.394531 30.96875 25.710938 33.226562 25.710938 Z M 18.519531 19.558594 L 33.699219 19.558594 L 33.699219 17.703125 L 18.519531 17.703125 Z M 16.980469 21.105469 L 16.980469 31.394531 L 28.839844 31.394531 C 28.75 31.039062 28.707031 30.671875 28.707031 30.289062 C 28.707031 30.253906 28.707031 30.214844 28.707031 30.175781 L 18.226562 30.175781 C 18.066406 30.175781 17.933594 30.042969 17.933594 29.882812 L 17.933594 21.105469 Z M 16.980469 32.9375 L 29.539062 32.9375 C 29.335938 32.644531 29.160156 32.324219 29.027344 31.984375 L 16.980469 31.984375 Z M 28.128906 33.527344 L 24.089844 33.527344 L 24.089844 35.664062 L 28.128906 35.664062 Z M 37.167969 30.289062 C 37.167969 28.089844 35.398438 26.304688 33.226562 26.304688 C 31.054688 26.304688 29.289062 28.089844 29.289062 30.289062 C 29.289062 32.488281 31.054688 34.273438 33.226562 34.273438 C 35.398438 34.273438 37.167969 32.488281 37.167969 30.289062 Z M 31.921875 28.859375 C 31.808594 28.742188 31.621094 28.742188 31.507812 28.859375 L 30.300781 30.082031 C 30.246094 30.136719 30.214844 30.210938 30.214844 30.289062 C 30.214844 30.367188 30.246094 30.441406 30.300781 30.5 L 31.507812 31.71875 C 31.566406 31.777344 31.640625 31.804688 31.714844 31.804688 C 31.789062 31.804688 31.863281 31.777344 31.921875 31.71875 C 32.035156 31.605469 32.035156 31.417969 31.921875 31.300781 L 30.921875 30.289062 L 31.921875 29.277344 C 32.035156 29.160156 32.035156 28.972656 31.921875 28.859375 Z M 36.15625 30.082031 L 34.949219 28.859375 C 34.832031 28.742188 34.648438 28.742188 34.535156 28.859375 C 34.421875 28.972656 34.421875 29.160156 34.535156 29.277344 L 35.535156 30.289062 L 34.535156 31.300781 C 34.421875 31.417969 34.421875 31.605469 34.535156 31.71875 C 34.589844 31.777344 34.664062 31.804688 34.742188 31.804688 C 34.816406 31.804688 34.890625 31.777344 34.945312 31.71875 L 36.15625 30.5 C 36.210938 30.441406 36.242188 30.367188 36.242188 30.289062 C 36.242188 30.210938 36.210938 30.136719 36.15625 30.082031 Z M 33.933594 28.6875 C 33.785156 28.621094 33.613281 28.6875 33.546875 28.835938 L 32.375 31.5 C 32.308594 31.648438 32.375 31.824219 32.523438 31.890625 C 32.5625 31.910156 32.601562 31.917969 32.640625 31.917969 C 32.753906 31.917969 32.859375 31.851562 32.910156 31.742188 L 34.082031 29.078125 C 34.144531 28.929688 34.078125 28.753906 33.933594 28.6875 Z M 29.753906 23.539062 L 28.71875 24.070312 L 29.753906 24.605469 C 29.851562 24.65625 29.914062 24.757812 29.914062 24.867188 C 29.914062 24.980469 29.851562 25.082031 29.753906 25.132812 L 28.71875 25.664062 L 29.753906 26.195312 C 29.851562 26.246094 29.914062 26.347656 29.914062 26.460938 C 29.914062 26.570312 29.851562 26.671875 29.753906 26.722656 L 26.242188 28.53125 C 26.199219 28.554688 26.152344 28.566406 26.109375 28.566406 C 26.0625 28.566406 26.019531 28.554688 25.976562 28.53125 L 22.460938 26.722656 C 22.363281 26.671875 22.304688 26.570312 22.304688 26.460938 C 22.304688 26.347656 22.363281 26.246094 22.460938 26.195312 L 23.5 25.664062 L 22.460938 25.132812 C 22.363281 25.082031 22.304688 24.980469 22.304688 24.867188 C 22.304688 24.757812 22.363281 24.65625 22.460938 24.605469 L 23.496094 24.070312 L 22.460938 23.539062 C 22.363281 23.488281 22.304688 23.386719 22.304688 23.277344 C 22.304688 23.164062 22.363281 23.0625 22.460938 23.011719 L 25.976562 21.203125 C 26.058594 21.160156 26.15625 21.160156 26.242188 21.203125 L 29.753906 23.011719 C 29.851562 23.0625 29.914062 23.164062 29.914062 23.277344 C 29.914062 23.386719 29.851562 23.488281 29.753906 23.539062 Z M 28.074219 25.996094 L 26.242188 26.941406 C 26.199219 26.960938 26.152344 26.972656 26.109375 26.972656 C 26.0625 26.972656 26.019531 26.960938 25.976562 26.941406 L 24.144531 25.996094 L 23.238281 26.460938 L 26.109375 27.9375 L 28.976562 26.460938 Z M 28.078125 24.402344 L 26.242188 25.347656 C 26.199219 25.371094 26.15625 25.378906 26.109375 25.378906 C 26.0625 25.378906 26.019531 25.371094 25.976562 25.347656 L 24.140625 24.402344 L 23.238281 24.867188 L 26.109375 26.34375 L 28.980469 24.867188 Z M 28.980469 23.277344 L 26.109375 21.796875 L 23.238281 23.277344 L 24.253906 23.796875 C 24.269531 23.804688 24.28125 23.8125 24.292969 23.816406 L 26.109375 24.753906 L 27.929688 23.816406 C 27.941406 23.808594 27.949219 23.804688 27.957031 23.800781 Z M 28.980469 23.277344 " fill-opacity="1" fill-rule="nonzero"/></g></svg>